<?xml version="1.0" standalone="no"?>
<!DOCTYPE svg PUBLIC "-//W3C//DTD SVG 20010904//EN"
 "http://www.w3.org/TR/2001/REC-SVG-20010904/DTD/svg10.dtd">
<svg version="1.0" xmlns="http://www.w3.org/2000/svg"
 width="2404.000000pt" height="2404.000000pt" viewBox="0 0 2404.000000 2404.000000"
 preserveAspectRatio="xMidYMid meet">

<g transform="translate(0.000000,2404.000000) scale(0.100000,-0.100000)"
fill="#000000" stroke="none">
<path d="M6681 22675 c-189 -43 -362 -178 -448 -350 -17 -33 -283 -818 -591
-1745 -426 -1279 -565 -1708 -577 -1782 -20 -124 -20 -331 0 -450 32 -188 59
-247 669 -1465 l585 -1171 544 -181 544 -182 94 3 94 3 121 600 c114 564 150
724 207 905 l24 75 -423 846 -423 847 509 1528 c566 1698 539 1605 506 1775
-35 177 -141 338 -290 437 -65 44 -118 64 -472 182 -398 133 -399 133 -504
137 -67 1 -128 -3 -169 -12z"/>
<path d="M17085 22679 c-22 -5 -211 -66 -419 -136 -335 -111 -388 -132 -452
-175 -93 -62 -172 -150 -223 -247 -57 -110 -75 -185 -75 -316 l0 -110 512
-1534 511 -1533 -423 -847 -423 -846 24 -75 c57 -181 93 -341 207 -905 l121
-600 94 -3 94 -3 544 182 544 181 585 1171 c611 1221 636 1277 669 1467 23
134 21 338 -4 469 -26 131 -1117 3414 -1167 3511 -90 173 -264 306 -449 345
-77 16 -208 18 -270 4z"/>
<path d="M11740 18679 c-811 -71 -1487 -450 -1987 -1116 -244 -325 -454 -747
-579 -1163 -23 -76 -124 -556 -263 -1250 l-226 -1125 -750 -3 -750 -2 -1260
421 -1260 421 -1070 1605 c-929 1394 -1079 1614 -1137 1669 -82 77 -147 115
-253 151 -70 23 -96 27 -205 27 -201 0 -223 -10 -623 -276 -183 -121 -348
-234 -367 -251 -224 -191 -296 -539 -165 -797 15 -29 548 -834 1185 -1789 876
-1314 1175 -1755 1230 -1813 99 -107 249 -217 383 -282 74 -36 600 -227 1568
-568 l1457 -513 -1712 -5 c-1586 -5 -1716 -7 -1783 -23 -281 -68 -491 -183
-680 -373 -99 -99 -124 -136 -1244 -1815 -628 -943 -1153 -1737 -1166 -1765
-114 -250 -69 -541 115 -736 54 -58 131 -114 409 -299 410 -274 431 -283 633
-284 139 0 208 17 325 78 143 76 110 29 1217 1690 l1018 1527 975 0 c536 0
975 -2 975 -5 0 -3 -573 -923 -1274 -2044 -701 -1122 -1293 -2076 -1316 -2121
-43 -86 -89 -213 -117 -326 -16 -64 -17 -207 -20 -1824 -4 -1962 -9 -1827 67
-1978 70 -138 166 -234 305 -303 131 -65 166 -69 631 -69 373 0 418 2 486 19
245 63 426 243 488 487 20 75 20 115 20 1640 l0 1563 1538 2462 c845 1353
1538 2454 1540 2446 2 -8 -8 -178 -22 -378 -44 -629 -50 -783 -51 -1224 0
-293 4 -468 13 -550 102 -919 463 -1759 1044 -2430 115 -132 360 -374 478
-471 626 -516 1332 -809 2125 -884 142 -13 528 -13 670 0 645 61 1224 263
1765 617 494 324 952 805 1271 1334 280 467 479 1005 568 1538 51 307 56 380
55 861 -1 445 -9 637 -55 1283 -11 159 -19 296 -17 304 2 8 695 -1093 1541
-2446 l1537 -2462 0 -1563 c0 -1515 1 -1565 19 -1639 63 -246 242 -425 489
-488 68 -17 112 -19 486 -19 465 0 500 4 631 69 139 69 235 165 305 303 76
151 71 16 67 1978 -3 1617 -4 1760 -20 1824 -28 113 -74 240 -116 325 -22 44
-614 998 -1316 2121 -701 1123 -1275 2044 -1275 2046 0 2 439 4 975 4 l975 0
1018 -1527 c906 -1358 1027 -1535 1090 -1595 175 -164 429 -219 662 -142 73
24 131 59 425 254 277 185 352 240 407 298 184 196 229 487 115 736 -29 62
-2224 3358 -2313 3472 -108 139 -284 283 -443 364 -73 36 -214 86 -321 113
-85 21 -92 21 -1796 27 l-1711 5 1461 515 c967 341 1496 533 1568 568 130 63
281 175 378 280 55 58 354 499 1230 1813 637 955 1170 1760 1185 1789 131 258
59 606 -165 797 -19 17 -184 130 -367 251 -400 266 -422 276 -623 276 -109 0
-135 -4 -205 -27 -106 -36 -171 -74 -253 -151 -58 -55 -208 -275 -1137 -1670
l-1070 -1605 -1260 -421 -1260 -420 -750 2 -750 3 -226 1125 c-229 1146 -253
1247 -350 1510 -66 178 -227 503 -327 662 -517 822 -1246 1279 -2167 1358
-138 11 -406 11 -545 -1z"/>
</g>
</svg>
